<svg xmlns="http://www.w3.org/2000/svg" viewBox="0 0 600 600" width="600" height="600">
  <defs>
    <radialGradient id="bg" cx="50%" cy="50%" r="50%">
      <stop offset="0" stop-color="#0B5F4A" stop-opacity="0.35"/>
      <stop offset="1" stop-color="#0A1614" stop-opacity="0"/>
    </radialGradient>
    <linearGradient id="edge" x1="0" y1="0" x2="1" y2="1">
      <stop offset="0" stop-color="#4ADE80"/>
      <stop offset="1" stop-color="#00FFA3"/>
    </linearGradient>
  </defs>
  <rect width="600" height="600" fill="url(#bg)"/>
  <g transform="translate(300 300)" stroke="url(#edge)" stroke-width="1.5" fill="none" opacity="0.85">
    <polygon points="0,-180 156,-90 156,90 0,180 -156,90 -156,-90"/>
    <line x1="0" y1="-180" x2="0" y2="180"/>
    <line x1="-156" y1="-90" x2="156" y2="90"/>
    <line x1="156" y1="-90" x2="-156" y2="90"/>
    <polygon points="0,-100 86,-50 86,50 0,100 -86,50 -86,-50" stroke-opacity="0.55"/>
  </g>
  <g transform="translate(300 300)" fill="#00FFA3">
    <circle cx="0" cy="-180" r="3.5"/>
    <circle cx="156" cy="-90" r="3.5"/>
    <circle cx="156" cy="90" r="3.5"/>
    <circle cx="0" cy="180" r="3.5"/>
    <circle cx="-156" cy="90" r="3.5"/>
    <circle cx="-156" cy="-90" r="3.5"/>
    <circle cx="0" cy="0" r="6" fill="#4ADE80"/>
  </g>
</svg>
